# xmcd
#
# Track frame offsets:
# 150
# 18855
# 37080
# 59830
# 81280
# 93753
# 114955
# 132088
# 141655
#
# Disc length: 2087 seconds
#
# Revision: 0
# Processed by: cddbd v1.4PL0 Copyright (c) Steve Scherf et al.
# Submitted via: Audion 2.6.0 (http://www.panic.com/audion/)
#
DISCID=79082509
DTITLE=Pink Anderson - The Blues of Pink Anderson
DYEAR=1900
DGENRE=
TTITLE0=The Titanic
TTITLE1=Boweevil
TTITLE2=John Henry
TTITLE3=Betty and Dupree
TTITLE4=Sugar Babe
TTITLE5=The Wreck of the Old 97
TTITLE6=I Will Fly Away
TTITLE7=The Kaiser
TTITLE8=In The Evening
EXTD=
EXTT0=
EXTT1=
EXTT2=
EXTT3=
EXTT4=
EXTT5=
EXTT6=
EXTT7=
EXTT8=
PLAYORDER=
